HIERARCHY
ROOT Hips
{
	OFFSET 0.00000 0.00000 0.00000
	CHANNELS 6 Xposition Yposition Zposition Zrotation Yrotation Xrotation 
	JOINT LHipJoint
	{
		OFFSET 0 0 0
		CHANNELS 3 Zrotation Yrotation Xrotation
		JOINT LeftHip
		{
			OFFSET 3.13874 -1.57224 1.49786
			CHANNELS 3 Zrotation Yrotation Xrotation
			JOINT LeftKnee
			{
				OFFSET 2.10955 -5.79594 0.00000
				CHANNELS 3 Zrotation Yrotation Xrotation
				JOINT LeftAnkle
				{
					OFFSET 2.41843 -6.64458 0.00000
					CHANNELS 3 Zrotation Yrotation Xrotation
					JOINT LeftToe
					{
						OFFSET 0.04713 -0.12948 1.66229
						CHANNELS 3 Zrotation Yrotation Xrotation
						End Site
						{
							OFFSET 0.00000 -0.00000 0.85167
						}
					}
				}
			}
		}
	}
	JOINT RHipJoint
	{
		OFFSET 0 0 0
		CHANNELS 3 Zrotation Yrotation Xrotation
		JOINT RightHip
		{
			OFFSET -3.13988 -1.57224 1.49786
			CHANNELS 3 Zrotation Yrotation Xrotation
			JOINT RightKnee
			{
				OFFSET -2.15006 -5.90725 0.00000
				CHANNELS 3 Zrotation Yrotation Xrotation
				JOINT RightAnkle
				{
					OFFSET -2.34496 -6.44273 0.00000
					CHANNELS 3 Zrotation Yrotation Xrotation
					JOINT RightToe
					{
						OFFSET -0.08699 -0.23900 1.55223
						CHANNELS 3 Zrotation Yrotation Xrotation
						End Site
						{
							OFFSET -0.00000 -0.00000 0.80281
						}
					}
				}
			}
		}
	}
	JOINT lowerback
	{
		OFFSET 0 0 0
		CHANNELS 3 Zrotation Yrotation Xrotation
		JOINT Chest
		{
			OFFSET 0.01292 1.96517 -0.16495
			CHANNELS 3 Zrotation Yrotation Xrotation
			JOINT Chest2
			{
				OFFSET 0.02122 1.88666 0.19706
				CHANNELS 3 Zrotation Yrotation Xrotation
				JOINT lowerneck
				{
					OFFSET 0 0 0
					CHANNELS 3 Zrotation Yrotation Xrotation
					JOINT Neck
					{
						OFFSET -0.01683 1.81591 0.07903
						CHANNELS 3 Zrotation Yrotation Xrotation
						JOINT Head
						{
							OFFSET 0.00815 1.74013 -0.47700
							CHANNELS 3 Zrotation Yrotation Xrotation
							End Site
							{
								OFFSET -0.00204 1.83225 -0.16933
							}
						}
					}
				}
				JOINT LeftCollar
				{
					OFFSET 0 0 0
					CHANNELS 3 Zrotation Yrotation Xrotation
					JOINT LeftShoulder
					{
						OFFSET 3.38482 1.41533 0.19802
CHANNELS 3 Zrotation Xrotation Yrotation
						JOINT LeftElbow
						{
OFFSET 0 -4.327120 0.000000
CHANNELS 3 Zrotation Xrotation Yrotation
							JOINT LeftWrist
							{
OFFSET 0 -3.285870 -0.000000
CHANNELS 3 Zrotation Xrotation Yrotation
								JOINT lhand
								{
									OFFSET 0 0 0
CHANNELS 3 Zrotation Xrotation Yrotation
									JOINT LFingers
									{
OFFSET 0 -0.433160 -0.000000
CHANNELS 3 Zrotation Xrotation Yrotation
										End Site
										{
OFFSET 0 -0.349220 -0.000000
										}
									}
								}
								JOINT LThumb
								{
OFFSET 0 0.000000 0.000000
CHANNELS 3 Zrotation Xrotation Yrotation
									End Site
									{
OFFSET 0 -0.354560 0.354560
									}
								}
							}
						}
					}
				}
				JOINT RightCollar
				{
					OFFSET 0 0 0
					CHANNELS 3 Zrotation Yrotation Xrotation
					JOINT RightShoulder
					{
						OFFSET -3.09725 1.62858 -0.14144
CHANNELS 3 Zrotation Xrotation Yrotation
						JOINT RightElbow
						{
OFFSET 0 -4.291040 0.000000
CHANNELS 3 Zrotation Xrotation Yrotation
							JOINT RightWrist
							{
OFFSET 0 -3.227200 -0.000000
CHANNELS 3 Zrotation Xrotation Yrotation
								JOINT rhand
								{
									OFFSET 0 0 0
CHANNELS 3 Zrotation Xrotation Yrotation
									JOINT RFingers
									{
OFFSET 0 -0.543620 -0.000000
CHANNELS 3 Zrotation Xrotation Yrotation
										End Site
										{
OFFSET 0 -0.438280 -0.000000
										}
									}
								}
								JOINT RThumb
								{
OFFSET 0 0.000000 0.000000
CHANNELS 3 Zrotation Xrotation Yrotation
									End Site
									{
OFFSET 0 -0.444970 0.444970
									}
								}
							}
						}
					}
				}
			}
		}
	}
}
MOTION
Frames: 6
Frame Time: .0083333
-0.3008 15.9400 3.2355 -143.1660 -54.0631 178.5900 0.0000 0.0000 0.0000 21.5029 -17.5488 -56.9530 1.9322 8.7235 24.9341 2.9523 -15.3448 -31.2849 0.0234 -0.9883 -2.7167 0.0000 0.0000 0.0000 37.8441 18.7026 24.0750 -0.1969 2.8572 -7.8815 -3.7751 -10.0596 -41.0775 -2.1261 -9.1239 26.1837 3.4548 6.6837 11.2226 -0.7866 9.5538 -11.7327 -5.3321 3.5787 -19.1959 4.3978 -0.2287 -22.2030 3.8658 -3.9312 29.0206 0.0256 -0.8730 13.5849 0.0000 -0.0000 0.0000 21.5829 32.6557 -2.8048 19.4800 -30.0107 5.2688 35.1576 18.5316 -22.0297 0.0 0.0 0.0 -7.1250 0.0 0.0 6.9947 56.1746 -1.9237 0.0000 -0.0000 0.0000 -32.2745 8.4159 37.1692 -46.6224 -51.539 -23.5024 -16.4643 -7.5428 11.2164 0.0 0.0 0.0 7.1250 0.0 -0.0 9.4926 41.4743 0.8339
-0.5831 16.0485 3.2273 -142.3550 -54.5171 178.3070 0.0000 0.0000 0.0000 21.4193 -18.8134 -56.0741 1.8384 8.5211 24.3085 3.3220 -14.2612 -33.0667 0.0224 -0.9654 -2.6536 0.0000 0.0000 0.0000 33.3177 10.6291 18.5738 -0.0736 1.7496 -4.8142 -0.9585 -13.5011 -27.8154 -2.5289 -9.8903 28.6222 3.1880 6.5764 11.0537 -0.5814 9.3754 -11.5958 -4.8743 3.5755 -19.0029 4.0003 -0.3453 -22.2157 3.9833 -3.9842 29.0208 0.1298 -0.9220 13.5958 -0.0000 -0.0000 0.0000 20.5469 32.5295 -3.4276 19.5855 -30.1397 5.3217 34.4778 17.7555 -21.7901 0.0 0.0 0.0 -7.1250 0.0 0.0 6.2476 55.7423 -1.6515 -0.0000 -0.0000 0.0000 -32.866 8.9769 37.5106 -44.7479 -50.6444 -22.0436 -16.7627 -7.1536 11.5905 0.0 0.0 0.0 7.1250 0.0 -0.0 9.3069 41.8856 0.722
-0.8623 16.1488 3.2171 -141.7260 -55.1280 177.7470 0.0000 0.0000 0.0000 20.8330 -20.3443 -54.4990 1.6799 8.1647 23.2156 3.7874 -6.0405 -35.6807 0.6374 -5.1078 -14.2162 0.0000 0.0000 0.0000 30.2466 4.6988 15.0621 -0.0000 0.0366 -0.1005 -0.0442 -13.4330 -19.6103 -3.5680 -11.5623 34.2005 3.0439 6.4463 11.1180 -0.4098 9.1995 -11.4263 -4.5534 3.5458 -18.8959 3.9270 -0.4563 -21.9426 3.9596 -4.0749 28.8572 0.1177 -0.9819 13.4688 0.0000 0.0000 0.0000 19.6379 32.1949 -3.685 19.4255 -29.944 5.2416 34.0018 17.625 -21.6237 0.0 0.0 0.0 -7.1250 0.0 0.0 5.7319 55.4438 -1.4729 0.0000 0.0000 0.0000 -33.2877 10.0018 37.4392 -43.0294 -49.7657 -20.7232 -16.9592 -5.4235 12.2651 0.0 0.0 0.0 7.1250 0.0 -0.0 9.2747 42.5964 0.5553
-1.1412 16.2395 3.2104 -141.1130 -55.9064 176.8530 0.0000 0.0000 0.0000 19.9813 -22.3076 -52.2905 1.4848 7.6985 21.8021 3.6785 -12.0003 -34.7488 0.1021 -2.0609 -5.6740 0.0000 0.0000 0.0000 27.8531 0.3640 12.4541 -0.1240 -2.2698 6.2520 0.3067 -14.6118 -16.9414 -2.4013 -9.6562 27.8703 3.1595 6.2916 11.2961 -0.2528 9.0454 -11.2058 -4.4041 3.4918 -18.7495 3.8510 -0.5160 -21.6462 3.9696 -4.1083 28.7461 0.1299 -1.0124 13.3609 0.0000 0.0000 0.0000 18.8583 31.7171 -3.664 19.1647 -29.6228 5.112 33.6621 17.9898 -21.2938 0.0 0.0 0.0 -7.1250 0.0 0.0 5.3945 54.9918 -1.3265 0.0000 0.0000 0.0000 -33.5899 11.3167 37.2113 -40.9984 -48.6504 -19.1854 -17.7221 -5.1254 11.0484 0.0 0.0 0.0 7.1250 0.0 -0.0 8.3560 41.4188 0.7439
-1.4198 16.3263 3.2075 -140.8860 -56.9623 176.0590 0.0000 0.0000 0.0000 18.8010 -24.8860 -49.7117 1.2702 7.1432 20.1404 3.5067 -15.1430 -34.0499 0.0410 -1.3063 -3.5919 0.0000 0.0000 0.0000 25.6513 -2.7145 10.2871 -0.6108 -5.0020 13.9143 0.6502 -16.4207 -15.1019 -1.8070 -8.4520 24.0955 3.2011 6.0556 11.5343 -0.1066 8.7634 -10.9682 -4.2026 3.3858 -18.6412 3.7534 -0.6556 -21.3763 3.8318 -4.2040 28.6817 0.0772 -1.0907 13.2729 -0.0000 -0.0000 0.0000 18.1979 31.4072 -3.7491 19.0203 -29.4439 5.0408 33.3911 18.4712 -21.2978 0.0 0.0 0.0 -7.1250 0.0 0.0 5.0937 54.9362 -1.2454 -0.0000 -0.0000 0.0000 -33.8067 12.8068 36.7114 -39.1936 -47.5848 -17.8416 -17.4322 -5.2148 11.504 0.0 0.0 0.0 7.1250 0.0 -0.0 8.6996 41.8613 0.6793
-1.6937 16.4095 3.2048 -141.1840 -58.3035 175.6380 0.0000 0.0000 0.0000 17.0756 -27.6994 -47.1153 1.0632 6.5556 18.4054 3.3412 -16.9544 -33.4380 0.0326 -1.1654 -3.2040 0.0000 0.0000 0.0000 23.4399 -5.0383 8.3617 -1.5603 -7.8830 22.3592 1.4564 -21.2536 -13.0130 -0.0880 1.9133 -5.2661 3.0159 5.7373 11.7499 0.0067 8.3127 -10.7707 -3.8734 3.2239 -18.6101 3.5252 -0.7687 -21.2269 3.6969 -4.2474 28.8393 0.0563 -1.1535 13.3050 -0.0000 -0.0000 0.0000 17.6652 31.2716 -3.8882 18.9640 -29.3739 5.0132 33.2427 19.22 -21.7457 0.0 0.0 0.0 -7.1250 0.0 0.0 4.8669 55.4112 -1.2459 -0.0000 -0.0000 0.0000 -34.0833 14.4678 36.1524 -37.5759 -46.5663 -16.6569 -17.231 -5.2679 13.6375 0.0 0.0 0.0 7.1250 0.0 -0.0 9.3374 44.032 0.2251
